<svg xmlns="http://www.w3.org/2000/svg" xmlns:xlink="http://www.w3.org/1999/xlink" width="144" zoomAndPan="magnify" viewBox="0 0 108 107.999999" height="144" preserveAspectRatio="xMidYMid meet" version="1.2"><defs><clipPath id="554cb66b97"><path d="M 23 21.382812 L 85 21.382812 L 85 86.632812 L 23 86.632812 Z M 23 21.382812 "/></clipPath></defs><g id="6a0aab83c6"><g clip-rule="nonzero" clip-path="url(#554cb66b97)"><path style=" stroke:none;fill-rule:evenodd;fill:#949494;fill-opacity:1;" d="M 52.785156 21.460938 C 51.492188 21.71875 51.09375 21.824219 50.449219 22.085938 C 49.605469 22.425781 30.285156 33.542969 29.410156 34.191406 C 28.371094 34.953125 26.734375 36.914062 26.734375 37.390625 C 26.734375 37.484375 27.472656 37.929688 28.371094 38.382812 L 30.011719 39.203125 L 30.5 38.492188 C 30.769531 38.105469 31.277344 37.570312 31.632812 37.3125 C 31.984375 37.050781 36.664062 34.308594 42.027344 31.214844 C 49.730469 26.773438 51.949219 25.550781 52.601562 25.382812 C 53.550781 25.140625 55.007812 25.195312 55.871094 25.503906 C 56.542969 25.75 75.484375 36.660156 76.359375 37.308594 C 76.710938 37.570312 77.222656 38.105469 77.488281 38.492188 L 77.976562 39.203125 L 79.617188 38.382812 C 80.519531 37.929688 81.257812 37.484375 81.257812 37.390625 C 81.257812 37.085938 80.035156 35.464844 79.285156 34.78125 C 78.425781 34 78.460938 34.019531 66.949219 27.375 C 61.667969 24.328125 57.710938 22.121094 57.203125 21.945312 C 55.835938 21.472656 53.84375 21.253906 52.785156 21.460938 M 47.816406 32.292969 C 44.453125 34.230469 41.675781 35.839844 41.648438 35.863281 C 41.589844 35.910156 41.835938 36.375 42.84375 38.097656 L 43.496094 39.203125 L 48.648438 36.222656 C 51.484375 34.582031 53.890625 33.238281 53.996094 33.238281 C 54.101562 33.234375 56.507812 34.578125 59.34375 36.21875 L 64.5 39.199219 L 65.148438 38.09375 C 66.15625 36.371094 66.402344 35.910156 66.34375 35.859375 C 66.210938 35.746094 54.183594 28.832031 54.066406 28.800781 C 53.992188 28.78125 51.179688 30.355469 47.816406 32.292969 M 23.421875 53.996094 L 23.421875 63.550781 L 26.535156 63.550781 C 28.328125 63.550781 29.9375 63.488281 30.324219 63.410156 C 32.464844 62.960938 34.285156 61.140625 34.742188 58.988281 C 34.9375 58.074219 34.9375 49.914062 34.742188 49 C 34.285156 46.851562 32.46875 45.035156 30.324219 44.582031 C 29.933594 44.5 28.339844 44.441406 26.535156 44.441406 L 23.421875 44.441406 Z M 38.707031 53.996094 L 38.707031 63.550781 L 50.171875 63.550781 L 50.171875 59.726562 L 42.53125 59.726562 L 42.53125 55.90625 L 46.351562 55.90625 L 46.351562 52.085938 L 42.53125 52.085938 L 42.53125 48.261719 L 50.171875 48.261719 L 50.171875 44.441406 L 38.707031 44.441406 Z M 53.996094 53.996094 L 53.996094 63.550781 L 57.816406 63.550781 L 57.832031 50.621094 L 59.75 54.441406 L 61.671875 58.261719 L 63.558594 54.503906 L 65.449219 50.746094 L 65.453125 57.148438 L 65.460938 63.550781 L 69.28125 63.550781 L 69.28125 44.441406 L 64.3125 44.441406 L 63.011719 47.050781 C 62.292969 48.488281 61.675781 49.664062 61.640625 49.664062 C 61.601562 49.664062 60.984375 48.488281 60.269531 47.050781 L 58.964844 44.441406 L 53.996094 44.441406 Z M 77.5 44.621094 C 75.40625 45.140625 73.683594 46.914062 73.246094 49 C 73.054688 49.917969 73.054688 58.082031 73.25 58.988281 C 73.726562 61.242188 75.632812 63.050781 77.941406 63.449219 C 80.878906 63.953125 83.792969 61.949219 84.425781 58.988281 C 84.519531 58.5625 84.570312 56.734375 84.570312 53.996094 C 84.570312 51.257812 84.519531 49.429688 84.425781 49 C 84.191406 47.902344 83.683594 46.984375 82.855469 46.152344 C 81.410156 44.699219 79.449219 44.136719 77.5 44.621094 M 27.242188 53.996094 L 27.242188 59.726562 L 28.394531 59.726562 C 29.8125 59.726562 30.421875 59.472656 30.808594 58.710938 C 31.050781 58.238281 31.0625 57.96875 31.0625 53.996094 C 31.0625 50.023438 31.050781 49.753906 30.808594 49.277344 C 30.421875 48.519531 29.8125 48.261719 28.394531 48.261719 L 27.242188 48.261719 Z M 77.894531 48.558594 C 76.945312 49.144531 76.9375 49.1875 76.933594 53.96875 C 76.925781 57.886719 76.945312 58.246094 77.167969 58.683594 C 77.859375 60.042969 79.894531 60.027344 80.542969 58.660156 C 80.71875 58.285156 80.75 57.632812 80.75 53.996094 C 80.75 50.359375 80.71875 49.707031 80.542969 49.332031 C 80.078125 48.355469 78.816406 47.984375 77.894531 48.558594 M 28.355469 69.617188 C 27.464844 70.066406 26.734375 70.507812 26.734375 70.601562 C 26.734375 70.902344 27.957031 72.527344 28.664062 73.164062 C 29.597656 74.011719 29.433594 73.910156 40.257812 80.15625 C 50.832031 86.253906 51.148438 86.410156 53.316406 86.5625 C 54.621094 86.652344 55.871094 86.488281 57.15625 86.050781 C 58.074219 85.742188 76.824219 75.03125 78.390625 73.921875 C 78.8125 73.625 79.394531 73.132812 79.683594 72.828125 C 80.320312 72.167969 81.257812 70.835938 81.257812 70.601562 C 81.257812 70.507812 80.519531 70.0625 79.617188 69.609375 L 77.976562 68.789062 L 77.488281 69.496094 C 77.222656 69.886719 76.710938 70.421875 76.359375 70.683594 C 75.449219 71.355469 56.613281 82.191406 55.84375 82.480469 C 54.957031 82.816406 53.03125 82.816406 52.148438 82.480469 C 51.496094 82.230469 33.082031 71.671875 31.835938 70.832031 C 31.457031 70.574219 30.890625 70.023438 30.582031 69.601562 C 30.273438 69.179688 30.011719 68.828125 30 68.820312 C 29.992188 68.808594 29.25 69.167969 28.355469 69.617188 "/></g></g></svg>