<svg width="64" height="64" viewBox="0 0 64 64" fill="none" xmlns="http://www.w3.org/2000/svg">
<path d="M15.6 48.4002C15.6 43.8715 19.2712 40.2002 23.8 40.2002H32V48.4002C32 52.9289 28.3287 56.6002 23.8 56.6002C19.2712 56.6002 15.6 52.9289 15.6 48.4002Z" fill="#0ACF83"/>
<path d="M32 32C32 27.4714 35.6713 23.8 40.2 23.8C44.7287 23.8 48.4 27.4713 48.4 32C48.4 36.5288 44.7287 40.2 40.2 40.2C35.6713 40.2 32 36.5287 32 32Z" fill="#1ABCFE"/>
<path d="M15.6 32.0002C15.6 36.5289 19.2712 40.2002 23.8 40.2002H32L32 23.8002L23.8 23.8002C19.2712 23.8002 15.6 27.4715 15.6 32.0002Z" fill="#A259FF"/>
<path d="M32 7.40015V23.8001H40.2C44.7287 23.8001 48.4 20.1289 48.4 15.6001C48.4 11.0714 44.7287 7.40015 40.2 7.40015H32Z" fill="#FF7262"/>
<path d="M15.6 15.6C15.6 20.1288 19.2712 23.8 23.8 23.8L32 23.8L32 7.40005L23.8 7.40005C19.2712 7.40005 15.6 11.0713 15.6 15.6Z" fill="#F24E1E"/>
</svg>
