<svg width="88" height="88" viewBox="0 0 88 88" fill="none" xmlns="http://www.w3.org/2000/svg">
<g clip-path="url(#clip0_36_57)">
<path d="M39.5585 41.3014C39.0875 42.1171 38.869 43.0542 38.9306 43.9941C38.9922 44.934 39.3312 45.8346 39.9046 46.5819C40.478 47.3292 41.2602 47.8896 42.1521 48.1924C43.0441 48.4951 44.0058 48.5266 44.9156 48.2828C45.8255 48.039 46.6426 47.5308 47.2636 46.8226C47.8847 46.1144 48.2817 45.238 48.4047 44.3041C48.5276 43.3702 48.3708 42.4208 47.9541 41.576C47.5375 40.7313 46.8797 40.029 46.0639 39.5581C44.9701 38.9267 43.6702 38.7556 42.4502 39.0825C41.2302 39.4094 40.19 40.2076 39.5585 41.3014V41.3014ZM60.6281 35.1033C60.1787 34.9502 59.7138 34.8048 59.2335 34.6673C59.3161 34.3253 59.392 33.9875 59.4612 33.6537C60.764 27.3458 59.9166 22.2634 57.0159 20.5885C54.2346 18.9827 49.6834 20.6532 45.086 24.6502C44.6335 25.0445 44.1912 25.45 43.759 25.8666C43.4703 25.5894 43.1764 25.3177 42.8776 25.0515C38.064 20.7714 33.2377 18.9662 30.338 20.6427C27.5573 22.2499 26.7311 27.0271 27.8967 33.0065C28.0121 33.5961 28.1426 34.1825 28.288 34.7657C27.9029 34.8777 27.5201 34.9968 27.1395 35.1231C21.0277 37.1559 17.0534 40.4356 17.0572 43.785C17.0609 46.9968 20.7872 50.0987 26.5499 52.0749C27.1209 52.2699 27.6965 52.4505 28.2768 52.6167C28.1032 53.305 27.9523 53.98 27.8274 54.6366C26.7091 60.5107 27.5781 65.1764 30.3495 66.7764C33.2119 68.4292 38.0188 66.7344 42.7 62.646C43.0791 62.3141 43.4496 61.9729 43.8116 61.6224C44.2792 62.0742 44.759 62.5125 45.2512 62.9375C49.7813 66.8409 54.2566 68.4188 57.0277 66.8176C59.8891 65.1634 60.8223 60.1531 59.6197 54.0551C59.5245 53.5733 59.4131 53.0802 59.2878 52.5786C59.9131 52.3989 60.5331 52.2019 61.1477 51.9876C66.792 50.0125 70.3943 46.9231 70.3909 43.7227C70.3868 40.4172 66.5118 37.1064 60.6281 35.1033L60.6281 35.1033ZM19.3355 43.7824C19.3332 41.7206 22.5813 39.0404 27.8582 37.2852C28.1956 37.1731 28.5422 37.0653 28.8983 36.9618C29.614 39.2653 30.4817 41.5187 31.4956 43.7073C30.4848 45.8877 29.6161 48.1312 28.895 50.4237C28.3554 50.2694 27.82 50.1014 27.2886 49.9197L27.2889 49.9197C22.3512 48.2265 19.3376 45.7178 19.3355 43.7824ZM35.9488 51.8286C34.2542 51.6165 32.6304 51.3345 31.1047 50.9888C31.5707 49.5008 32.1409 47.9562 32.8035 46.3864C33.2849 47.3178 33.788 48.2377 34.3129 49.1459C34.8373 50.0527 35.3825 50.9469 35.9488 51.8286V51.8286ZM41.2015 60.9299C39.4568 62.5306 37.4325 63.7966 35.2295 64.6646C34.6486 64.9423 34.0169 65.0979 33.3734 65.1218C32.73 65.1457 32.0884 65.0374 31.4885 64.8036C29.8068 63.8325 29.1093 60.0865 30.0656 55.0627C30.1866 54.4324 30.3259 53.8062 30.4834 53.1841C32.8338 53.7132 35.2167 54.0862 37.6164 54.3008C39.0227 56.2983 40.5595 58.2007 42.2166 59.9956C41.886 60.3153 41.5476 60.6267 41.2015 60.9299ZM46.8817 32.8956C45.8254 32.8547 44.7685 32.835 43.7111 32.8366C42.6705 32.8379 41.6303 32.8616 40.5904 32.9076C41.6274 31.5411 42.6897 30.2721 43.7579 29.121C44.862 30.3259 45.9046 31.5857 46.8817 32.8956V32.8956ZM30.1329 32.5705C29.1341 27.4472 29.8023 23.5838 31.4782 22.6152C33.2631 21.5836 37.2076 23.0586 41.3636 26.754C41.6342 26.9951 41.9003 27.241 42.1621 27.4917C40.5262 29.2603 39.0091 31.1352 37.6208 33.1041C35.2234 33.3071 32.8424 33.6716 30.4941 34.1951C30.3604 33.6566 30.24 33.1151 30.1329 32.5705ZM31.1067 36.3924C32.7087 36.0365 34.3276 35.7617 35.9572 35.5688C34.8214 37.3378 33.7704 39.1572 32.8042 41.027C32.1389 39.4466 31.5705 37.8925 31.1067 36.3924ZM40.5907 54.5056C41.6385 54.5537 42.6872 54.5772 43.7365 54.5761C44.8068 54.5748 45.8765 54.5479 46.9458 54.4955C45.9652 55.8356 44.9165 57.1244 43.8037 58.357C42.7224 57.1889 41.6437 55.8964 40.5907 54.5056ZM57.384 54.4956C57.8992 56.8067 57.9845 59.1929 57.6358 61.5348L57.6357 61.5351C57.586 62.1769 57.4052 62.8018 57.1045 63.3711C56.8037 63.9403 56.3894 64.4419 55.8872 64.8447C54.2061 65.8166 50.6124 64.5492 46.7383 61.2112C46.2809 60.8161 45.8347 60.4086 45.3997 59.9887C47.0251 58.1911 48.5267 56.2854 49.8943 54.2847C52.3124 54.0635 54.7135 53.6838 57.0819 53.148C57.1935 53.5946 57.2942 54.0438 57.384 54.4956ZM56.455 50.9545C54.9058 51.307 53.2514 51.5955 51.5248 51.8133C52.07 50.949 52.6075 50.0583 53.1374 49.1412C53.6809 48.1997 54.1968 47.2584 54.6851 46.3173C55.354 47.8318 55.9447 49.3796 56.455 50.9546L56.455 50.9545ZM51.1621 39.4067C51.9735 40.8082 52.7388 42.2349 53.458 43.6867C52.7647 45.1136 51.9976 46.559 51.1644 48.0021C50.3346 49.4393 49.4827 50.8116 48.6181 52.1077C46.9929 52.2326 45.3649 52.296 43.7341 52.2978C42.1127 52.2999 40.4929 52.2405 38.8748 52.1196C37.9605 50.781 37.0974 49.4095 36.2855 48.0051L36.286 48.0054C35.4745 46.602 34.7171 45.1694 34.0138 43.7074C34.7028 42.2739 35.4615 40.8341 36.2835 39.4105C37.1091 37.9802 37.9781 36.6017 38.8758 35.2888C40.4859 35.174 42.0985 35.116 43.7138 35.1149C45.3336 35.1117 46.9521 35.1613 48.5693 35.2635C49.4825 36.6135 50.3468 37.9945 51.1622 39.4066L51.1621 39.4067ZM46.5811 26.3697C50.5199 22.9448 54.2007 21.5938 55.8768 22.5615C57.6625 23.5925 58.3547 27.7466 57.2302 33.1928L57.2302 33.193C57.1679 33.4936 57.0994 33.7989 57.0248 34.1088C54.6506 33.5993 52.2444 33.2521 49.8231 33.0695C48.4597 31.1129 46.967 29.2498 45.3548 27.4926C45.7647 27.0992 46.1735 26.7249 46.5811 26.3697V26.3697ZM51.4607 35.5142C53.1263 35.6932 54.7814 35.9584 56.4194 36.3089C55.9179 37.9159 55.3327 39.4957 54.6663 41.0417C54.1742 40.1066 53.6636 39.1816 53.1346 38.2666C52.5973 37.3369 52.0394 36.4194 51.4607 35.5142V35.5142ZM68.1121 43.7253C68.1143 45.6675 65.2218 48.1479 60.3948 49.837C59.8417 50.0308 59.2653 50.2141 58.6655 50.3871C57.9241 48.0927 57.0284 45.8509 55.9846 43.6773C57.0224 41.47 57.907 39.1939 58.6322 36.8652C59.0667 36.9905 59.4873 37.1222 59.8938 37.2603L59.8937 37.2601C62.1532 37.968 64.2631 39.0858 66.1178 40.5576C66.6492 40.9212 67.1003 41.3899 67.4433 41.9347C67.7863 42.4796 68.0139 43.089 68.1121 43.7253V43.7253Z" fill="#33CCFF"/>
</g>
<defs>
<clipPath id="clip0_36_57">
<rect width="64" height="64" fill="white" transform="translate(0 32) rotate(-30)"/>
</clipPath>
</defs>
</svg>
