<svg width="64" height="38" viewBox="0 0 64 38" fill="none" xmlns="http://www.w3.org/2000/svg">
<path fill-rule="evenodd" clip-rule="evenodd" d="M32 0C23.4667 0 18.1333 4.22222 16 12.6667C19.2 8.44444 22.9333 6.86111 27.2 7.91667C29.6344 8.51833 31.3742 10.267 33.3001 12.201C36.4373 15.3525 40.0687 19 48 19C56.5333 19 61.8667 14.7778 64 6.33333C60.8 10.5556 57.0667 12.1389 52.8 11.0833C50.3656 10.4817 48.6258 8.73296 46.6999 6.79895C43.5627 3.64753 39.9313 0 32 0ZM16 19C7.46667 19 2.13333 23.2222 0 31.6667C3.2 27.4444 6.93333 25.8611 11.2 26.9167C13.6344 27.5195 15.3742 29.267 17.3001 31.201C20.4373 34.3525 24.0687 38 32 38C40.5333 38 45.8667 33.7778 48 25.3333C44.8 29.5556 41.0667 31.1389 36.8 30.0833C34.3656 29.4817 32.6258 27.733 30.6999 25.7989C27.5627 22.6475 23.9313 19 16 19Z" fill="#38BDF8"/>
</svg>
